<svg width="1920" height="1080" viewBox="0 0 1920 1080" fill="none" xmlns="http://www.w3.org/2000/svg">
<g clip-path="url(#clip0_79_58)">
<rect width="1920" height="1080" fill="#191819"/>
<path d="M1252.17 -4H1177.67C1171.8 -4 1167 0.8 1167 6.66667V81.3333C1167 87.2 1171.8 92 1177.67 92H1252.17C1258.04 92 1262.84 87.2 1262.84 81.3333V6.66667C1262.84 3.83769 1261.72 1.12458 1259.72 -0.875806C1257.72 -2.87619 1255 -4 1252.17 -4ZM1243.69 70.56C1243.53 70.6133 1243.32 70.6667 1243.16 70.6667H1231.11C1230.58 70.6755 1230.07 70.5278 1229.63 70.2427C1229.2 69.9575 1228.86 69.5479 1228.65 69.0667L1215.53 38.4533C1215.43 38.1333 1215.11 37.9733 1214.84 38.08C1214.75 38.1121 1214.68 38.162 1214.61 38.2264C1214.55 38.2908 1214.5 38.3681 1214.47 38.4533L1206.31 57.92C1206.15 58.2933 1206.31 58.6667 1206.68 58.8267C1206.79 58.88 1206.84 58.88 1206.95 58.88H1215.91C1216.44 58.88 1216.97 59.2 1217.19 59.7333L1221.13 68.48C1221.51 69.28 1221.08 70.24 1220.28 70.6133C1219.96 70.6133 1219.75 70.6667 1219.53 70.6667H1186.89C1186.09 70.6667 1185.4 69.9733 1185.4 69.1733C1185.4 68.96 1185.45 68.8 1185.51 68.5867L1206.31 19.0933C1206.73 18.0267 1207.8 17.3333 1208.92 17.3333H1220.92C1222.09 17.3333 1223.11 18.0267 1223.53 19.0933L1244.44 68.5867C1244.81 69.3333 1244.49 70.24 1243.69 70.56Z" fill="#1E1E1E"/>
<g clip-path="url(#clip1_79_58)">
<path d="M1328.96 859.569C1324.75 861.101 1321.24 863.682 1318.61 866.912C1316.84 863.189 1314.25 859.916 1311.04 857.34C1315.02 853.132 1319.97 849.95 1325.45 848.063C1330.93 846.176 1336.79 845.642 1342.52 846.504C1348.25 847.366 1353.69 849.6 1358.38 853.016C1363.06 856.432 1366.85 860.929 1369.42 866.124L1379.03 862.627C1386.29 859.984 1394.33 863.732 1396.98 870.994L1409.29 904.823C1409.92 906.552 1410.2 908.387 1410.12 910.224C1410.04 912.062 1409.6 913.865 1408.82 915.532C1408.04 917.198 1406.94 918.696 1405.59 919.938C1404.23 921.179 1402.64 922.142 1400.91 922.77L1367.08 935.083C1363.6 936.353 1359.75 936.185 1356.38 934.615C1353.01 933.046 1350.41 930.204 1349.14 926.715L1345.65 917.115C1342.94 917.775 1340.16 918.115 1337.37 918.129C1336.8 916.327 1336.17 914.461 1335.47 912.537L1335.25 911.936C1334.59 910.131 1333.82 908.004 1332.91 905.746C1335.75 906.265 1338.67 906.264 1341.51 905.741L1336.83 892.886C1334.19 885.624 1337.93 877.586 1345.2 874.942L1358.04 870.266C1355.24 865.333 1350.78 861.552 1345.46 859.594C1340.13 857.636 1334.29 857.627 1328.96 859.569V859.569ZM1372.9 877.63C1373.74 884.36 1372.66 891.19 1369.8 897.337C1366.93 903.484 1362.39 908.698 1356.69 912.38L1360.42 922.611C1360.79 923.648 1361.94 924.184 1362.98 923.806L1396.81 911.494C1397.31 911.312 1397.71 910.94 1397.94 910.46C1398.16 909.979 1398.19 909.429 1398 908.93L1385.69 875.101C1385.51 874.603 1385.14 874.197 1384.66 873.973C1384.18 873.749 1383.63 873.725 1383.13 873.906L1372.9 877.63ZM1361.17 881.898L1349.3 886.219C1348.8 886.4 1348.4 886.772 1348.17 887.253C1347.95 887.734 1347.92 888.284 1348.1 888.782L1352.43 900.66C1355.19 898.381 1357.41 895.513 1358.92 892.267C1360.44 889.021 1361.21 885.477 1361.18 881.896L1361.17 881.898ZM1293 852.438C1293.82 852.756 1294.52 853.338 1294.97 854.092C1295.43 854.846 1295.63 855.731 1295.53 856.607C1295.55 856.851 1295.6 857.09 1295.68 857.32C1295.85 857.793 1296.3 858.652 1297.84 859.366C1298.59 859.715 1299.16 859.953 1299.77 860.214C1300.27 860.423 1300.8 860.639 1301.49 860.952C1302.8 861.528 1304.23 862.251 1305.66 863.29C1308.62 865.472 1310.99 868.687 1312.9 873.927C1315.18 880.181 1314.87 886.347 1312.55 891.014C1315.55 892.44 1317.89 894.884 1319.74 897.506C1323.34 902.599 1325.88 909.59 1327.85 914.995L1327.95 915.273C1333.58 930.744 1334.03 940.984 1332.74 947.642C1332.29 950.245 1331.35 952.741 1329.99 955.004C1329.44 955.879 1328.79 956.687 1328.06 957.41C1328.06 957.41 1327.23 958.103 1326.6 958.333C1326.04 958.487 1325.46 958.565 1324.88 958.565C1323.85 958.484 1322.84 958.282 1321.86 957.964C1319.36 957.108 1317.04 955.796 1315.01 954.094C1309.75 949.829 1303.51 941.689 1297.88 926.218L1297.78 925.947C1295.81 920.535 1293.27 913.551 1292.75 907.322C1292.48 904.133 1292.7 900.758 1294.08 897.726C1289.31 895.658 1285.11 891.126 1282.83 884.871C1281.94 882.421 1281.53 879.258 1281.45 876.231C1281.36 873.196 1281.61 869.94 1282.25 867.154C1282.92 863.59 1284.47 860.243 1285.76 857.899C1286.46 856.608 1287.23 855.353 1288.07 854.139L1288.24 853.906L1288.29 853.829L1288.3 853.806L1288.32 853.793C1288.84 853.083 1289.58 852.565 1290.43 852.319C1291.27 852.074 1292.18 852.116 1293 852.438V852.438Z" fill="#1E1E1E"/>
</g>
<g clip-path="url(#clip2_79_58)">
<path d="M438.066 776.828L408.451 764.561L412.564 754.631C413.67 751.96 415.6 750.054 418.352 748.914C421.102 747.775 423.812 747.759 426.483 748.865L436.413 752.979C439.084 754.085 440.99 756.013 442.128 758.762C443.269 761.515 443.286 764.227 442.179 766.898L438.066 776.828ZM383.643 866.335L374.969 845.394L387.957 814.036L351.097 798.564L364.735 765.639L401.719 781.06L404.461 774.44L434.025 786.584L431.283 793.204L468.143 808.676L454.577 841.427L417.522 826.18L404.584 857.661L383.643 866.335ZM392.07 804.106L397.554 790.867L389.192 787.403L385.678 795.642L375.922 791.601L379.263 783.29L370.429 779.733L365.068 792.922L392.07 804.106ZM448.688 827.558L454.172 814.318L445.339 810.761L441.947 818.949L432.068 814.959L435.532 806.597L427.047 803.185L421.563 816.425L448.688 827.558Z" fill="#1E1E1E"/>
</g>
<g clip-path="url(#clip3_79_58)">
<path d="M610.72 70.0107C612.923 72.1547 614.667 74.9813 614.667 78.5227C614.667 82.5387 612.395 85.664 609.867 87.8294C607.307 90.0053 603.926 91.728 600.214 93.072C592.736 95.7653 582.763 97.3333 572 97.3333C561.237 97.3333 551.264 95.7654 543.787 93.0667C540.075 91.7334 536.693 90.0053 534.139 87.8294C531.605 85.664 529.333 82.5387 529.333 78.5227C529.333 74.9867 531.077 72.1547 533.28 70.0107C538.259 75.279 544.261 79.4741 550.92 82.3383C557.578 85.2025 564.752 86.6755 572 86.6667C587.248 86.6667 601.003 80.2667 610.72 70.0107V70.0107ZM572 -9.33331C583.316 -9.33331 594.169 -4.83809 602.17 3.16346C610.172 11.165 614.667 22.0174 614.667 33.3334C614.667 44.6493 610.172 55.5017 602.17 63.5032C594.169 71.5048 583.316 76 572 76C560.684 76 549.832 71.5048 541.83 63.5032C533.829 55.5017 529.333 44.6493 529.333 33.3334C529.333 22.0174 533.829 11.165 541.83 3.16346C549.832 -4.83809 560.684 -9.33331 572 -9.33331V-9.33331ZM572 12C566.342 12 560.916 14.2476 556.915 18.2484C552.914 22.2492 550.667 27.6754 550.667 33.3334C550.667 38.9913 552.914 44.4175 556.915 48.4183C560.916 52.4191 566.342 54.6667 572 54.6667C577.658 54.6667 583.084 52.4191 587.085 48.4183C591.086 44.4175 593.333 38.9913 593.333 33.3334C593.333 27.6754 591.086 22.2492 587.085 18.2484C583.084 14.2476 577.658 12 572 12ZM572 22.6667C574.829 22.6667 577.542 23.7905 579.543 25.7909C581.543 27.7913 582.667 30.5044 582.667 33.3334C582.667 36.1623 581.543 38.8754 579.543 40.8758C577.542 42.8762 574.829 44 572 44C569.171 44 566.458 42.8762 564.458 40.8758C562.457 38.8754 561.333 36.1623 561.333 33.3334C561.333 30.5044 562.457 27.7913 564.458 25.7909C566.458 23.7905 569.171 22.6667 572 22.6667V22.6667Z" fill="#1E1E1E"/>
</g>
<g clip-path="url(#clip4_79_58)">
<path d="M238.313 262.689L200.343 290.276M202.555 257.026L217.602 277.736M186.267 205.572L227.689 175.478M226.717 239.47L247.428 224.423M238.313 262.689L265.927 242.626C267.758 241.296 268.986 239.293 269.34 237.057C269.694 234.822 269.145 232.538 267.815 230.707L207.626 147.863C206.296 146.032 204.292 144.805 202.057 144.451C199.822 144.097 197.537 144.645 195.706 145.975L168.092 166.039C166.261 167.369 165.034 169.372 164.679 171.607C164.325 173.843 164.874 176.127 166.204 177.958L226.393 260.801C227.724 262.632 229.727 263.86 231.962 264.214C234.197 264.568 236.482 264.019 238.313 262.689ZM127.91 226.875L176.236 191.765L216.362 246.994L168.037 282.104C166.206 283.435 163.921 283.983 161.686 283.629C159.451 283.275 157.447 282.047 156.117 280.217L126.023 238.795C124.692 236.964 124.144 234.68 124.498 232.444C124.852 230.209 126.079 228.206 127.91 226.875V226.875Z" stroke="#1E1E1E" stroke-width="12"/>
</g>
<path d="M1710.19 740.037L1694.71 697.512L1737.24 682.034L1740.92 692.133L1708.31 704L1720.12 736.426L1710.19 740.037ZM1748.86 758.069L1745.19 747.969L1777.79 736.103L1765.99 703.677L1775.91 700.065L1791.39 742.591L1748.86 758.069Z" fill="#1E1E1E"/>
<g clip-path="url(#clip5_79_58)">
<path d="M1495.86 307.196C1494.79 306.127 1494.25 304.87 1494.26 303.425C1494.25 301.979 1494.79 300.722 1495.86 299.653C1496.93 298.585 1498.18 298.052 1499.63 298.054C1501.07 298.052 1502.33 298.585 1503.4 299.654L1507.17 303.425L1556.2 254.399C1558.27 252.324 1560.79 251.287 1563.74 251.287C1566.69 251.287 1569.21 252.324 1571.28 254.399L1631.62 314.738C1633.7 316.813 1634.73 319.327 1634.74 322.281C1634.73 325.235 1633.7 327.749 1631.62 329.823L1582.59 378.849L1586.37 382.621C1587.43 383.689 1587.97 384.946 1587.97 386.392C1587.97 387.838 1587.43 389.095 1586.37 390.163C1585.3 391.232 1584.04 391.765 1582.59 391.762C1581.15 391.765 1579.89 391.232 1578.82 390.163L1495.86 307.196ZM1539.23 335.48L1550.54 346.794C1551.04 347.297 1551.67 347.548 1552.43 347.548C1553.18 347.548 1553.81 347.297 1554.31 346.794C1554.81 346.291 1555.06 345.663 1555.06 344.908C1555.06 344.154 1554.81 343.526 1554.31 343.023L1543 331.709C1542.49 331.206 1541.87 330.955 1541.11 330.955C1540.36 330.955 1539.73 331.206 1539.23 331.709C1538.72 332.212 1538.47 332.84 1538.47 333.595C1538.47 334.349 1538.72 334.977 1539.23 335.48ZM1526.03 299.654L1586.37 359.993L1624.08 322.281L1563.74 261.941L1526.03 299.654ZM1526.03 299.654L1563.74 261.941L1526.03 299.654Z" fill="#1E1E1E"/>
</g>
<path d="M-13.6883 420H19.3117V505.5H54.7117V420H87.7117V630H54.7117V535.5H19.3117V630H-13.6883V420Z" fill="#191919"/>
<path d="M0.2 320H22.2V377H45.8V320H67.8V460H45.8V397H22.2V460H0.2V320ZM0.2 480H22.2V620H0.2V480ZM0.2 640H31.6L45.6 740.2H46L60 640H91.4V780H70.6V674H70.2L54.2 780H35.8L19.8 674H19.4V780H0.2V640ZM17.2 800H47L69.8 940H47.8L43.8 912.2V912.6H18.8L14.8 940H-5.6L17.2 800ZM41.2 893.6L31.4 824.4H31L21.4 893.6H41.2Z" fill="#1E1E1E"/>
<path d="M1851.85 -9.53674e-06H1879.45L1900.85 83.8H1901.25V-9.53674e-06H1920.85V140H1898.25L1871.85 37.8H1871.45V140H1851.85V-9.53674e-06ZM1891.39 302C1880.72 302 1872.65 299 1867.19 293C1861.72 286.867 1858.99 278.133 1858.99 266.8V258.8H1879.79V268.4C1879.79 277.467 1883.59 282 1891.19 282C1894.92 282 1897.72 280.933 1899.59 278.8C1901.59 276.533 1902.59 272.933 1902.59 268C1902.59 262.133 1901.25 257 1898.59 252.6C1895.92 248.067 1890.99 242.667 1883.79 236.4C1874.72 228.4 1868.39 221.2 1864.79 214.8C1861.19 208.267 1859.39 200.933 1859.39 192.8C1859.39 181.733 1862.19 173.2 1867.79 167.2C1873.39 161.067 1881.52 158 1892.19 158C1902.72 158 1910.65 161.067 1915.99 167.2C1921.45 173.2 1924.19 181.867 1924.19 193.2V199H1903.39V191.8C1903.39 187 1902.45 183.533 1900.59 181.4C1898.72 179.133 1895.99 178 1892.39 178C1885.05 178 1881.39 182.467 1881.39 191.4C1881.39 196.467 1882.72 201.2 1885.39 205.6C1888.19 210 1893.19 215.333 1900.39 221.6C1909.59 229.6 1915.92 236.867 1919.39 243.4C1922.85 249.933 1924.59 257.6 1924.59 266.4C1924.59 277.867 1921.72 286.667 1915.99 292.8C1910.39 298.933 1902.19 302 1891.39 302ZM1853.22 320H1875.22V377H1898.82V320H1920.82V460H1898.82V397H1875.22V460H1853.22V320ZM1888.73 622C1878.06 622 1869.93 619 1864.33 613C1858.73 606.867 1855.93 598.133 1855.93 586.8V480H1877.93V588.4C1877.93 593.2 1878.86 596.667 1880.73 598.8C1882.73 600.933 1885.53 602 1889.13 602C1892.73 602 1895.46 600.933 1897.33 598.8C1899.33 596.667 1900.33 593.2 1900.33 588.4V480H1921.53V586.8C1921.53 598.133 1918.73 606.867 1913.13 613C1907.53 619 1899.4 622 1888.73 622Z" fill="#1E1E1E"/>
</g>
<defs>
<clipPath id="clip0_79_58">
<rect width="1920" height="1080" fill="white"/>
</clipPath>
<clipPath id="clip1_79_58">
<rect width="128" height="128" fill="white" transform="translate(1263 853.779) rotate(-20)"/>
</clipPath>
<clipPath id="clip2_79_58">
<rect width="128" height="128" fill="white" transform="translate(326 768.983) rotate(-22.5)"/>
</clipPath>
<clipPath id="clip3_79_58">
<rect width="128" height="128" fill="white" transform="translate(508 -20)"/>
</clipPath>
<clipPath id="clip4_79_58">
<rect width="128" height="128" fill="white" transform="translate(100 210.237) rotate(-36)"/>
</clipPath>
<clipPath id="clip5_79_58">
<rect width="128" height="128" fill="white" transform="translate(1567.51 228) rotate(45)"/>
</clipPath>
</defs>
</svg>
