<svg width="597" height="308" viewBox="0 0 597 308" fill="none" xmlns="http://www.w3.org/2000/svg">
<g filter="url(#filter0_d_29_24)">
<path d="M4.92 25.4H18.488L24.76 94.264H25.016L31.672 25.4H47.032L53.688 94.264H53.944L60.216 25.4H72.376L63.288 115H45.752L39.352 54.584H39.096L32.696 115H14.008L4.92 25.4ZM79.498 25.4H93.578V61.88H108.682V25.4H122.762V115H108.682V74.68H93.578V115H79.498V25.4ZM153.6 116.28C146.688 116.28 141.397 114.317 137.728 110.392C134.059 106.467 132.224 100.92 132.224 93.752V46.648C132.224 39.48 134.059 33.9333 137.728 30.008C141.397 26.0827 146.688 24.12 153.6 24.12C160.512 24.12 165.803 26.0827 169.472 30.008C173.141 33.9333 174.976 39.48 174.976 46.648V93.752C174.976 100.92 173.141 106.467 169.472 110.392C165.803 114.317 160.512 116.28 153.6 116.28ZM153.6 103.48C158.464 103.48 160.896 100.536 160.896 94.648V45.752C160.896 39.864 158.464 36.92 153.6 36.92C148.736 36.92 146.304 39.864 146.304 45.752V94.648C146.304 100.536 148.736 103.48 153.6 103.48ZM204.998 25.4H219.078V115H204.998V25.4ZM247.927 116.28C241.1 116.28 235.938 114.36 232.439 110.52C228.94 106.595 227.191 101.005 227.191 93.752V88.632H240.503V94.776C240.503 100.579 242.935 103.48 247.799 103.48C250.188 103.48 251.98 102.797 253.175 101.432C254.455 99.9813 255.095 97.6773 255.095 94.52C255.095 90.7653 254.242 87.48 252.535 84.664C250.828 81.7627 247.671 78.3067 243.063 74.296C237.26 69.176 233.207 64.568 230.903 60.472C228.599 56.2907 227.447 51.5973 227.447 46.392C227.447 39.3093 229.239 33.848 232.823 30.008C236.407 26.0827 241.612 24.12 248.439 24.12C255.18 24.12 260.258 26.0827 263.671 30.008C267.17 33.848 268.919 39.3947 268.919 46.648V50.36H255.607V45.752C255.607 42.68 255.01 40.4613 253.815 39.096C252.62 37.6453 250.871 36.92 248.567 36.92C243.874 36.92 241.527 39.7787 241.527 45.496C241.527 48.7387 242.38 51.768 244.087 54.584C245.879 57.4 249.079 60.8133 253.687 64.824C259.575 69.944 263.628 74.5947 265.847 78.776C268.066 82.9573 269.175 87.864 269.175 93.496C269.175 100.835 267.34 106.467 263.671 110.392C260.087 114.317 254.839 116.28 247.927 116.28ZM151.748 179.4H165.828V215.88H180.932V179.4H195.012V269H180.932V228.68H165.828V269H151.748V179.4ZM225.998 179.4H246.094L255.054 243.528H255.31L264.27 179.4H284.366V269H271.054V201.16H270.798L260.558 269H248.782L238.542 201.16H238.286V269H225.998V179.4ZM305.753 179.4H324.825L339.417 269H325.337L322.777 251.208V251.464H306.777L304.217 269H291.161L305.753 179.4ZM321.113 239.304L314.841 195.016H314.585L308.441 239.304H321.113ZM346.248 179.4H363.912L377.608 233.032H377.864V179.4H390.408V269H375.944L359.048 203.592H358.792V269H346.248V179.4ZM419.177 270.28C412.35 270.28 407.188 268.36 403.689 264.52C400.19 260.595 398.441 255.005 398.441 247.752V242.632H411.753V248.776C411.753 254.579 414.185 257.48 419.049 257.48C421.438 257.48 423.23 256.797 424.425 255.432C425.705 253.981 426.345 251.677 426.345 248.52C426.345 244.765 425.492 241.48 423.785 238.664C422.078 235.763 418.921 232.307 414.313 228.296C408.51 223.176 404.457 218.568 402.153 214.472C399.849 210.291 398.697 205.597 398.697 200.392C398.697 193.309 400.489 187.848 404.073 184.008C407.657 180.083 412.862 178.12 419.689 178.12C426.43 178.12 431.508 180.083 434.921 184.008C438.42 187.848 440.169 193.395 440.169 200.648V204.36H426.857V199.752C426.857 196.68 426.26 194.461 425.065 193.096C423.87 191.645 422.121 190.92 419.817 190.92C415.124 190.92 412.777 193.779 412.777 199.496C412.777 202.739 413.63 205.768 415.337 208.584C417.129 211.4 420.329 214.813 424.937 218.824C430.825 223.944 434.878 228.595 437.097 232.776C439.316 236.957 440.425 241.864 440.425 247.496C440.425 254.835 438.59 260.467 434.921 264.392C431.337 268.317 426.089 270.28 419.177 270.28ZM448.498 179.4H462.578V215.88H477.682V179.4H491.762V269H477.682V228.68H462.578V269H448.498V179.4ZM522.728 270.28C515.901 270.28 510.696 268.36 507.112 264.52C503.528 260.595 501.736 255.005 501.736 247.752V179.4H515.816V248.776C515.816 251.848 516.413 254.067 517.608 255.432C518.888 256.797 520.68 257.48 522.984 257.48C525.288 257.48 527.037 256.797 528.232 255.432C529.512 254.067 530.152 251.848 530.152 248.776V179.4H543.72V247.752C543.72 255.005 541.928 260.595 538.344 264.52C534.76 268.36 529.555 270.28 522.728 270.28ZM563.476 239.944C563.476 236.787 563.945 233.8 564.884 230.984C565.908 228.083 567.743 224.755 570.388 221C573.46 216.648 575.551 212.893 576.66 209.736C577.769 206.579 578.324 203.251 578.324 199.752C578.324 196.68 577.727 194.461 576.532 193.096C575.337 191.645 573.588 190.92 571.284 190.92C568.98 190.92 567.231 191.645 566.036 193.096C564.841 194.461 564.244 196.68 564.244 199.752V209.48H550.932V200.648C550.932 193.395 552.681 187.848 556.18 184.008C559.679 180.083 564.799 178.12 571.54 178.12C578.367 178.12 583.529 180.083 587.028 184.008C590.612 187.848 592.404 193.395 592.404 200.648C592.404 204.573 591.679 208.371 590.228 212.04C588.863 215.624 586.473 219.677 583.06 224.2C580.329 227.869 578.409 230.941 577.3 233.416C576.276 235.805 575.764 238.152 575.764 240.456V245.32H563.476V239.944ZM562.836 255.432H576.404V269H562.836V255.432Z" fill="white"/>
</g>
<path d="M205 114H219V153.907H235L212 202L189 153.907H205V114Z" fill="white"/>
<path d="M205 208L212 222.5L219 208V269H205V208Z" fill="white"/>
<defs>
<filter id="filter0_d_29_24" x="0.920044" y="24.12" width="595.484" height="254.16" filterUnits="userSpaceOnUse" color-interpolation-filters="sRGB">
<feFlood flood-opacity="0" result="BackgroundImageFix"/>
<feColorMatrix in="SourceAlpha" type="matrix" values="0 0 0 0 0 0 0 0 0 0 0 0 0 0 0 0 0 0 127 0" result="hardAlpha"/>
<feOffset dy="4"/>
<feGaussianBlur stdDeviation="2"/>
<feComposite in2="hardAlpha" operator="out"/>
<feColorMatrix type="matrix" values="0 0 0 0 0 0 0 0 0 0 0 0 0 0 0 0 0 0 0.25 0"/>
<feBlend mode="normal" in2="BackgroundImageFix" result="effect1_dropShadow_29_24"/>
<feBlend mode="normal" in="SourceGraphic" in2="effect1_dropShadow_29_24" result="shape"/>
</filter>
</defs>
</svg>
